<svg fill="#000000" height="64px" width="64px" version="1.1" id="Layer_1" xmlns="http://www.w3.org/2000/svg" xmlns:xlink="http://www.w3.org/1999/xlink" viewBox="0 0 512 512" xml:space="preserve"><g id="SVGRepo_bgCarrier" stroke-width="0"></g><g id="SVGRepo_tracerCarrier" stroke-linecap="round" stroke-linejoin="round"></g><g id="SVGRepo_iconCarrier"> <g> <g> <path d="M508.659,211.847l-131.254-96.901c-2.496-1.844-5.819-2.125-8.593-0.726c-2.771,1.398-4.519,4.239-4.519,7.345v32.547 H257.69c-4.544,0-8.226,3.683-8.226,8.226c0,4.543,3.682,8.226,8.226,8.226h114.829c4.544,0,8.226-3.683,8.226-8.226v-24.475 l109.177,80.603l-109.177,80.601v-24.474c0-4.543-3.682-8.226-8.226-8.226H194.981v-95.802h35.288 c4.544,0,8.226-3.683,8.226-8.226c0-4.543-3.682-8.226-8.226-8.226h-43.515c-4.544,0-8.226,3.683-8.226,8.226v112.255 c0,4.543,3.682,8.226,8.226,8.226h177.538v32.547c0,3.105,1.748,5.945,4.519,7.343c1.171,0.591,2.443,0.883,3.706,0.883 c1.728,0,3.445-0.544,4.886-1.608l131.254-96.901c2.102-1.551,3.341-4.007,3.341-6.618 C512,215.854,510.761,213.398,508.659,211.847z"></path> </g> </g> <g> <g> <path d="M158.775,229.185h-11.067v-32.556c0-3.105-1.748-5.945-4.52-7.345c-2.772-1.398-6.095-1.118-8.593,0.726L3.34,286.919 c-2.1,1.551-3.34,4.007-3.34,6.617c0,2.612,1.239,5.067,3.341,6.618l65.675,48.483c1.47,1.086,3.181,1.609,4.879,1.609 c2.523,0,5.012-1.156,6.625-3.341c2.698-3.655,1.923-8.806-1.733-11.504l-56.711-41.866l109.178-80.608v24.483 c0,4.543,3.682,8.226,8.226,8.226h19.294c4.544,0,8.226-3.683,8.226-8.226C167.001,232.868,163.319,229.185,158.775,229.185z"></path> </g> </g> <g> <g> <path d="M325.248,294.342c-4.544,0-8.226,3.683-8.226,8.226v38.868H139.481c-4.544,0-8.226,3.683-8.226,8.226v24.473 l-23.585-17.41c-3.653-2.697-8.806-1.922-11.504,1.733c-2.698,3.656-1.923,8.806,1.733,11.505l36.696,27.09 c1.441,1.064,3.159,1.608,4.887,1.608c1.264,0,2.535-0.292,3.706-0.883c2.771-1.398,4.519-4.239,4.519-7.344v-32.544h177.541 c4.544,0,8.226-3.683,8.226-8.226V302.57C333.474,298.025,329.792,294.342,325.248,294.342z"></path> </g> </g> </g></svg>